<?xml version="1.0" encoding="UTF-8"?>
<svg width="512" height="512" viewBox="0 0 512 512" fill="none" xmlns="http://www.w3.org/2000/svg">
  <!-- Background circle -->
  <circle cx="256" cy="256" r="256" fill="#25D366"/>
  
  <!-- Phone shape -->
  <path d="M352 128H160C147.2 128 136 139.2 136 152V360C136 372.8 147.2 384 160 384H352C364.8 384 376 372.8 376 360V152C376 139.2 364.8 128 352 128Z" fill="white"/>
  
  <!-- Phone details -->
  <rect x="208" y="144" width="96" height="16" rx="8" fill="#25D366"/>
  <circle cx="256" cy="352" r="24" fill="#25D366"/>
  
  <!-- WhatsApp symbol -->
  <path d="M256 192C219.2 192 192 219.2 192 256C192 292.8 219.2 320 256 320C292.8 320 320 292.8 320 256C320 219.2 292.8 192 256 192ZM256 304C230.4 304 208 281.6 208 256C208 230.4 230.4 208 256 208C281.6 208 304 230.4 304 256C304 281.6 281.6 304 256 304Z" fill="#25D366"/>
</svg> 